<?xml version="1.0" encoding="UTF-8" standalone="no"?>
<svg
   xmlns:dc="http://purl.org/dc/elements/1.1/"
   xmlns:cc="http://creativecommons.org/ns#"
   xmlns:rdf="http://www.w3.org/1999/02/22-rdf-syntax-ns#"
   xmlns:svg="http://www.w3.org/2000/svg"
   xmlns="http://www.w3.org/2000/svg"
   xmlns:sodipodi="http://sodipodi.sourceforge.net/DTD/sodipodi-0.dtd"
   xmlns:inkscape="http://www.inkscape.org/namespaces/inkscape"
   id="Layer_1"
   x="0"
   y="0"
   enable-background="new 0 0 400 140"
   version="1.1"
   viewBox="0 0 1300 480"
   xml:space="preserve"
   sodipodi:docname="rails-logo.svg"
   width="1300"
   height="480"
   inkscape:version="0.92.5 (2060ec1f9f, 2020-04-08)"><metadata
     id="metadata49"><rdf:RDF><cc:Work
         rdf:about=""><dc:format>image/svg+xml</dc:format><dc:type
           rdf:resource="http://purl.org/dc/dcmitype/StillImage" /><dc:title>rails-logo</dc:title></cc:Work></rdf:RDF></metadata><defs
     id="defs47" /><sodipodi:namedview
     pagecolor="#ffffff"
     bordercolor="#666666"
     borderopacity="1"
     objecttolerance="10"
     gridtolerance="10"
     guidetolerance="10"
     inkscape:pageopacity="0"
     inkscape:pageshadow="2"
     inkscape:window-width="1600"
     inkscape:window-height="776"
     id="namedview45"
     showgrid="false"
     inkscape:zoom="0.61341513"
     inkscape:cx="664.99636"
     inkscape:cy="205.02112"
     inkscape:window-x="0"
     inkscape:window-y="27"
     inkscape:window-maximized="1"
     inkscape:current-layer="Layer_1" /><style
     id="style2">.a{fill:#c00}</style><title
     id="title4">rails-logo</title><g
     id="g42"
     transform="matrix(3.2327585,0,0,3.2327585,5.534483,18.3069)"><path
       d="m 346.6,121.5 v 18.1 c 0,0 23.4,0 32.7,0 6.7,0 18.2,-4.9 18.6,-18.6 0,-0.6 0,-6.5 0,-7 0,-11.7 -9.6,-18.6 -18.6,-18.6 -4.2,0 -16.3,0 -16.3,0 V 87 h 32.3 V 68.8 c 0,0 -22.2,0 -31,0 -8,0 -18.7,6.6 -18.7,18.9 0,1.2 0,5.2 0,6.3 0,12.3 10.6,18.6 18.7,18.6 22.5,0.1 -5.4,0 15.4,0 0,8.8 0,8.8 0,8.8"
       class="a"
       id="path6"
       inkscape:connector-curvature="0"
       style="fill:#cc0000" /><path
       d="m 171.4,117.1 c 0,0 17.5,-1.5 17.5,-24.1 0,-22.6 -21.2,-24.7 -21.2,-24.7 h -38.2 v 71.3 h 19.2 v -17.2 l 16.6,17.2 h 28.4 z M 164,102.5 H 148.7 V 86.2 h 15.4 c 0,0 4.3,1.6 4.3,8.1 0,6.5 -4.4,8.2 -4.4,8.2 z"
       class="a"
       id="path8"
       inkscape:connector-curvature="0"
       style="fill:#cc0000" /><path
       d="m 236.3,68.8 c -4.9,0 -5.6,0 -19.5,0 -13.9,0 -18.6,12.6 -18.6,18.6 0,13 0,52.2 0,52.2 h 19.5 V 127.1 H 236 v 12.5 h 18.9 c 0,0 0,-38.5 0,-52.2 0,-15.2 -13.8,-18.6 -18.6,-18.6 z M 236,106.9 H 217.6 V 89.6 c 0,0 0,-3.9 6.1,-3.9 5.6,0 1,0 6.7,0 5.4,0 5.5,3.9 5.5,3.9 v 17.3 z"
       class="a"
       id="path10"
       inkscape:connector-curvature="0"
       style="fill:#cc0000" /><rect
       width="20.299999"
       height="70.800003"
       x="263.79999"
       y="68.800003"
       class="a"
       id="rect12"
       style="fill:#cc0000" /><polygon
       points="339.9,121.3 312.6,121.3 312.6,68.8 292.4,68.8 292.4,121.3 292.4,139.6 312.6,139.6 339.9,139.6 "
       class="a"
       id="polygon14"
       style="fill:#cc0000" /><path
       d="m 9,139.6 h 79 c 0,0 -15.1,-68.9 34.9,-96.8 10.9,-5.3 45.6,-25.1 102.4,16.9 1.8,-1.5 3.5,-2.7 3.5,-2.7 0,0 -52,-51.9 -109.9,-46.1 C 89.8,13.5 54,40 33,75 12,110 9,139.6 9,139.6 Z"
       class="a"
       id="path16"
       inkscape:connector-curvature="0"
       style="fill:#cc0000" /><path
       d="m 9,139.6 h 79 c 0,0 -15.1,-68.9 34.9,-96.8 10.9,-5.3 45.6,-25.1 102.4,16.9 1.8,-1.5 3.5,-2.7 3.5,-2.7 0,0 -52,-51.9 -109.9,-46.1 C 89.8,13.5 54,40 33,75 12,110 9,139.6 9,139.6 Z"
       class="a"
       id="path18"
       inkscape:connector-curvature="0"
       style="fill:#cc0000" /><path
       d="m 9,139.6 h 79 c 0,0 -15.1,-68.9 34.9,-96.8 10.9,-5.3 45.6,-25.1 102.4,16.9 1.8,-1.5 3.5,-2.7 3.5,-2.7 0,0 -52,-51.9 -109.9,-46.1 C 89.7,13.5 53.9,40 32.9,75 11.9,110 9,139.6 9,139.6 Z"
       class="a"
       id="path20"
       inkscape:connector-curvature="0"
       style="fill:#cc0000" /><path
       d="M 173.6,16.5 174,9.8 c -0.9,-0.5 -3.4,-1.7 -9.7,-3.5 l -0.4,6.6 c 3.3,1.1 6.5,2.3 9.7,3.6 z"
       class="a"
       id="path22"
       inkscape:connector-curvature="0"
       style="fill:#cc0000" /><path
       d="m 164.1,37.7 -0.4,6.3 c 3.3,0.1 6.6,0.5 9.9,1.2 L 174,39 c -3.4,-0.7 -6.7,-1.1 -9.9,-1.3 z"
       class="a"
       id="path24"
       inkscape:connector-curvature="0"
       style="fill:#cc0000" /><path
       d="m 127.1,6.5 c 0.3,0 0.7,0 1,0 l -2,-6.1 c -3.1,0 -6.3,0.2 -9.6,0.6 l 1.9,5.9 c 2.9,-0.3 5.8,-0.4 8.7,-0.4 z"
       class="a"
       id="path26"
       inkscape:connector-curvature="0"
       style="fill:#cc0000" /><path
       d="m 131.9,43.3 2.3,6.9 c 2.9,-1.4 5.8,-2.6 8.7,-3.5 l -2.2,-6.6 c -3.4,1 -6.3,2.1 -8.8,3.2 z"
       class="a"
       id="path28"
       inkscape:connector-curvature="0"
       style="fill:#cc0000" /><path
       d="M 86.5,17 82,10.1 c -2.5,1.3 -5.1,2.7 -7.8,4.3 l 4.6,7 c 2.6,-1.6 5.1,-3.1 7.7,-4.4 z"
       class="a"
       id="path30"
       inkscape:connector-curvature="0"
       style="fill:#cc0000" /><path
       d="m 107,62 4.8,7.2 c 1.7,-2.5 3.7,-4.8 5.9,-7.1 l -4.5,-6.8 c -2.3,2.1 -4.4,4.4 -6.2,6.7 z"
       class="a"
       id="path32"
       inkscape:connector-curvature="0"
       style="fill:#cc0000" /><path
       d="m 92.5,94.2 8.1,6.4 c 0.4,-3.9 1.1,-7.8 2.1,-11.7 l -7.2,-5.7 c -1.3,3.7 -2.2,7.4 -3,11 z"
       class="a"
       id="path34"
       inkscape:connector-curvature="0"
       style="fill:#cc0000" /><path
       d="M 48.7,46.7 41.6,40.5 C 39,43 36.5,45.5 34.2,48 l 7.7,6.6 c 2.1,-2.7 4.4,-5.4 6.8,-7.9 z"
       class="a"
       id="path36"
       inkscape:connector-curvature="0"
       style="fill:#cc0000" /><path
       d="M 18.5,91.4 7,87.2 c -1.9,4.3 -4,9.3 -5,12 l 11.5,4.2 c 1.3,-3.4 3.4,-8.3 5,-12 z"
       class="a"
       id="path38"
       inkscape:connector-curvature="0"
       style="fill:#cc0000" /><path
       d="m 91,119.6 c 0.2,5.3 0.7,9.6 1.2,12.6 l 12,4.3 c -0.9,-3.9 -1.8,-8.3 -2.4,-13 z"
       class="a"
       id="path40"
       inkscape:connector-curvature="0"
       style="fill:#cc0000" /></g></svg>