<?xml version="1.0" encoding="UTF-8" standalone="no"?>
<!-- Created with Inkscape (http://www.inkscape.org/) -->

<svg
   xmlns:dc="http://purl.org/dc/elements/1.1/"
   xmlns:cc="http://creativecommons.org/ns#"
   xmlns:rdf="http://www.w3.org/1999/02/22-rdf-syntax-ns#"
   xmlns:svg="http://www.w3.org/2000/svg"
   xmlns="http://www.w3.org/2000/svg"
   xmlns:sodipodi="http://sodipodi.sourceforge.net/DTD/sodipodi-0.dtd"
   xmlns:inkscape="http://www.inkscape.org/namespaces/inkscape"
   width="1100"
   height="450"
   viewBox="0 0 291.04102 119.06251"
   version="1.1"
   id="svg8"
   inkscape:version="0.92.5 (2060ec1f9f, 2020-04-08)"
   sodipodi:docname="react-logo.svg">
  <defs
     id="defs2" />
  <sodipodi:namedview
     id="base"
     pagecolor="#ffffff"
     bordercolor="#666666"
     borderopacity="1.0"
     inkscape:pageopacity="0.0"
     inkscape:pageshadow="2"
     inkscape:zoom="0.35"
     inkscape:cx="912.17249"
     inkscape:cy="548.57143"
     inkscape:document-units="mm"
     inkscape:current-layer="layer1"
     showgrid="false"
     units="px"
     inkscape:window-width="1600"
     inkscape:window-height="863"
     inkscape:window-x="1600"
     inkscape:window-y="0"
     inkscape:window-maximized="1" />
  <metadata
     id="metadata5">
    <rdf:RDF>
      <cc:Work
         rdf:about="">
        <dc:format>image/svg+xml</dc:format>
        <dc:type
           rdf:resource="http://purl.org/dc/dcmitype/StillImage" />
        <dc:title></dc:title>
      </cc:Work>
    </rdf:RDF>
  </metadata>
  <g
     inkscape:label="Layer 1"
     inkscape:groupmode="layer"
     id="layer1"
     transform="translate(0,-177.93603)">
    <g
       id="g18"
       transform="matrix(0.26458333,0,0,0.26458333,-41.381168,159.33583)">
      <path
         id="path10"
         d="m 666.3,296.5 c 0,-32.5 -40.7,-63.3 -103.1,-82.4 14.4,-63.6 8,-114.2 -20.2,-130.4 -6.5,-3.8 -14.1,-5.6 -22.4,-5.6 v 22.3 c 4.6,0 8.3,0.9 11.4,2.6 13.6,7.8 19.5,37.5 14.9,75.7 -1.1,9.4 -2.9,19.3 -5.1,29.4 -19.6,-4.8 -41,-8.5 -63.5,-10.9 -13.5,-18.5 -27.5,-35.3 -41.6,-50 32.6,-30.3 63.2,-46.9 84,-46.9 V 78 c 0,0 0,0 0,0 -27.5,0 -63.5,19.6 -99.9,53.6 C 384.4,97.8 348.4,78.4 320.9,78.4 v 22.3 c 20.7,0 51.4,16.5 84,46.6 -14,14.7 -28,31.4 -41.3,49.9 -22.6,2.4 -44,6.1 -63.6,11 -2.3,-10 -4,-19.7 -5.2,-29 -4.7,-38.2 1.1,-67.9 14.6,-75.8 3,-1.8 6.9,-2.6 11.5,-2.6 V 78.5 c 0,0 0,0 0,0 -8.4,0 -16,1.8 -22.6,5.6 -28.1,16.2 -34.4,66.7 -19.9,130.1 -62.2,19.2 -102.7,49.9 -102.7,82.3 0,32.5 40.7,63.3 103.1,82.4 -14.4,63.6 -8,114.2 20.2,130.4 6.5,3.8 14.1,5.6 22.5,5.6 27.5,0 63.5,-19.6 99.9,-53.6 36.4,33.8 72.4,53.2 99.9,53.2 8.4,0 16,-1.8 22.6,-5.6 28.1,-16.2 34.4,-66.7 19.9,-130.1 62,-19.1 102.5,-49.9 102.5,-82.3 z M 536.1,229.8 c -3.7,12.9 -8.3,26.2 -13.5,39.5 -4.1,-8 -8.4,-16 -13.1,-24 -4.6,-8 -9.5,-15.8 -14.4,-23.4 14.2,2.1 27.9,4.7 41,7.9 z m -45.8,106.5 c -7.8,13.5 -15.8,26.3 -24.1,38.2 -14.9,1.3 -30,2 -45.2,2 -15.1,0 -30.2,-0.7 -45,-1.9 -8.3,-11.9 -16.4,-24.6 -24.2,-38 -7.6,-13.1 -14.5,-26.4 -20.8,-39.8 6.2,-13.4 13.2,-26.8 20.7,-39.9 7.8,-13.5 15.8,-26.3 24.1,-38.2 14.9,-1.3 30,-2 45.2,-2 15.1,0 30.2,0.7 45,1.9 8.3,11.9 16.4,24.6 24.2,38 7.6,13.1 14.5,26.4 20.8,39.8 -6.3,13.4 -13.2,26.8 -20.7,39.9 z m 32.3,-13 c 5.4,13.4 10,26.8 13.8,39.8 -13.1,3.2 -26.9,5.9 -41.2,8 4.9,-7.7 9.8,-15.6 14.4,-23.7 4.6,-8 8.9,-16.1 13,-24.1 z M 421.2,430 c -9.3,-9.6 -18.6,-20.3 -27.8,-32 9,0.4 18.2,0.7 27.5,0.7 9.4,0 18.7,-0.2 27.8,-0.7 -9,11.7 -18.3,22.4 -27.5,32 z m -74.4,-58.9 c -14.2,-2.1 -27.9,-4.7 -41,-7.9 3.7,-12.9 8.3,-26.2 13.5,-39.5 4.1,8 8.4,16 13.1,24 4.7,8 9.5,15.8 14.4,23.4 z M 420.7,163 c 9.3,9.6 18.6,20.3 27.8,32 -9,-0.4 -18.2,-0.7 -27.5,-0.7 -9.4,0 -18.7,0.2 -27.8,0.7 9,-11.7 18.3,-22.4 27.5,-32 z m -74,58.9 c -4.9,7.7 -9.8,15.6 -14.4,23.7 -4.6,8 -8.9,16 -13,24 -5.4,-13.4 -10,-26.8 -13.8,-39.8 13.1,-3.1 26.9,-5.8 41.2,-7.9 z m -90.5,125.2 c -35.4,-15.1 -58.3,-34.9 -58.3,-50.6 0,-15.7 22.9,-35.6 58.3,-50.6 8.6,-3.7 18,-7 27.7,-10.1 5.7,19.6 13.2,40 22.5,60.9 -9.2,20.8 -16.6,41.1 -22.2,60.6 -9.9,-3.1 -19.3,-6.5 -28,-10.2 z M 310,490 c -13.6,-7.8 -19.5,-37.5 -14.9,-75.7 1.1,-9.4 2.9,-19.3 5.1,-29.4 19.6,4.8 41,8.5 63.5,10.9 13.5,18.5 27.5,35.3 41.6,50 -32.6,30.3 -63.2,46.9 -84,46.9 -4.5,-0.1 -8.3,-1 -11.3,-2.7 z m 237.2,-76.2 c 4.7,38.2 -1.1,67.9 -14.6,75.8 -3,1.8 -6.9,2.6 -11.5,2.6 -20.7,0 -51.4,-16.5 -84,-46.6 14,-14.7 28,-31.4 41.3,-49.9 22.6,-2.4 44,-6.1 63.6,-11 2.3,10.1 4.1,19.8 5.2,29.1 z m 38.5,-66.7 c -8.6,3.7 -18,7 -27.7,10.1 -5.7,-19.6 -13.2,-40 -22.5,-60.9 9.2,-20.8 16.6,-41.1 22.2,-60.6 9.9,3.1 19.3,6.5 28.1,10.2 35.4,15.1 58.3,34.9 58.3,50.6 -0.1,15.7 -23,35.6 -58.4,50.6 z"
         inkscape:connector-curvature="0"
         style="fill:#61dafb" />
      <polygon
         id="polygon12"
         points=""
         style="fill:#61dafb" />
      <circle
         id="circle14"
         r="45.700001"
         cy="296.5"
         cx="420.89999"
         style="fill:#61dafb" />
      <polygon
         id="polygon16"
         points=""
         style="fill:#61dafb" />
    </g>
    <path
       inkscape:connector-curvature="0"
       id="path201"
       style="font-style:normal;font-weight:normal;font-size:192px;line-height:1;font-family:sans-serif;letter-spacing:0px;word-spacing:0px;fill:#000000;fill-opacity:1;stroke:none;stroke-width:0.26458332"
       d="m 165.12723,238.5937 q 1.6123,0.5457 3.12539,2.33164 1.53789,1.78593 3.07578,4.91133 l 5.08496,10.12031 h -5.38262 l -4.73769,-9.5002 q -1.83555,-3.7207 -3.57188,-4.93613 -1.71152,-1.21543 -4.68808,-1.21543 h -5.45704 v 15.65176 h -5.01054 v -37.0334 h 11.31093 q 6.35,0 9.47539,2.6541 3.1254,2.6541 3.1254,8.01192 0,3.49746 -1.63711,5.80429 -1.61231,2.30684 -4.71289,3.19981 z m -12.55118,-15.55254 v 13.14648 h 6.30039 q 3.62149,0 5.45704,-1.66191 1.86035,-1.68672 1.86035,-4.93613 0,-3.24942 -1.86035,-4.88653 -1.83555,-1.66191 -5.45704,-1.66191 z" />
    <path
       inkscape:connector-curvature="0"
       id="path203"
       style="font-style:normal;font-weight:normal;font-size:192px;line-height:1;font-family:sans-serif;letter-spacing:0px;word-spacing:0px;fill:#000000;fill-opacity:1;stroke:none;stroke-width:0.26458332"
       d="m 204.145,240.92534 v 2.23242 h -20.98477 q 0.29766,4.71289 2.82774,7.19336 2.55488,2.45566 7.09414,2.45566 2.62929,0 5.08496,-0.64492 2.48047,-0.64492 4.91133,-1.93476 v 4.31601 q -2.45567,1.0418 -5.03535,1.5875 -2.57969,0.5457 -5.23379,0.5457 -6.64766,0 -10.542,-3.86953 -3.86953,-3.86953 -3.86953,-10.46758 0,-6.82128 3.6711,-10.81484 3.6959,-4.01836 9.94668,-4.01836 5.60586,0 8.85527,3.62149 3.27422,3.59668 3.27422,9.79785 z m -4.56406,-1.33946 q -0.0496,-3.7455 -2.1084,-5.97793 -2.03399,-2.23242 -5.40742,-2.23242 -3.81993,0 -6.12676,2.15801 -2.28203,2.15801 -2.6293,6.07715 z" />
    <path
       inkscape:connector-curvature="0"
       id="path205"
       style="font-style:normal;font-weight:normal;font-size:192px;line-height:1;font-family:sans-serif;letter-spacing:0px;word-spacing:0px;fill:#000000;fill-opacity:1;stroke:none;stroke-width:0.26458332"
       d="m 224.2616,241.99194 q -5.53145,0 -7.66465,1.26504 -2.1332,1.26504 -2.1332,4.31601 0,2.43086 1.5875,3.86953 1.6123,1.41387 4.36562,1.41387 3.79512,0 6.07715,-2.6789 2.30684,-2.70372 2.30684,-7.16856 v -1.01699 z m 9.10332,-1.88516 v 15.8502 h -4.56406 v -4.2168 q -1.5627,2.53008 -3.89434,3.74551 -2.33164,1.19062 -5.70508,1.19062 -4.2664,0 -6.79648,-2.38125 -2.50527,-2.40605 -2.50527,-6.42441 0,-4.68809 3.12539,-7.06934 3.15019,-2.38125 9.37617,-2.38125 h 6.39961 v -0.44648 q 0,-3.1502 -2.0836,-4.86172 -2.05879,-1.73633 -5.80429,-1.73633 -2.38125,0 -4.63848,0.57051 -2.25723,0.57051 -4.34082,1.71152 v -4.21679 q 2.50527,-0.96738 4.86172,-1.43867 2.35644,-0.4961 4.58887,-0.4961 6.02754,0 9.0041,3.12539 2.97656,3.12539 2.97656,9.47539 z" />
    <path
       inkscape:connector-curvature="0"
       id="path207"
       style="font-style:normal;font-weight:normal;font-size:192px;line-height:1;font-family:sans-serif;letter-spacing:0px;word-spacing:0px;fill:#000000;fill-opacity:1;stroke:none;stroke-width:0.26458332"
       d="m 262.75847,229.24233 v 4.26641 q -1.93477,-1.06661 -3.89433,-1.5875 -1.93477,-0.54571 -3.91914,-0.54571 -4.44004,0 -6.89571,2.82774 -2.45566,2.80293 -2.45566,7.88789 0,5.08496 2.45566,7.91269 2.45567,2.80293 6.89571,2.80293 1.98437,0 3.91914,-0.5209 1.95956,-0.5457 3.89433,-1.6123 v 4.2168 q -1.90995,0.89296 -3.96875,1.33945 -2.03398,0.44648 -4.34082,0.44648 -6.27558,0 -9.97148,-3.94394 -3.6959,-3.94395 -3.6959,-10.64121 0,-6.79649 3.7207,-10.69082 3.74551,-3.89434 10.24434,-3.89434 2.1084,0 4.11758,0.44649 2.00917,0.42168 3.89433,1.28984 z" />
    <path
       inkscape:connector-curvature="0"
       id="path209"
       style="font-style:normal;font-weight:normal;font-size:192px;line-height:1;font-family:sans-serif;letter-spacing:0px;word-spacing:0px;fill:#000000;fill-opacity:1;stroke:none;stroke-width:0.26458332"
       d="m 275.21042,220.28784 v 7.88789 h 9.40099 v 3.54707 h -9.40099 v 15.08125 q 0,3.39824 0.91779,4.36562 0.94257,0.96739 3.7951,0.96739 h 4.6881 v 3.81992 h -4.6881 q -5.28339,0 -7.29258,-1.95957 -2.00916,-1.98438 -2.00916,-7.19336 V 231.7228 h -3.34865 v -3.54707 h 3.34865 v -7.88789 z" />
    <flowRoot
       xml:space="preserve"
       id="flowRoot40"
       style="font-style:normal;font-weight:normal;font-size:40px;line-height:1.25;font-family:sans-serif;letter-spacing:0px;word-spacing:0px;fill:#000000;fill-opacity:1;stroke:none"
       transform="scale(0.26458333)"><flowRegion
         id="flowRegion42"><rect
           id="rect44"
           width="242.85715"
           height="171.42857"
           x="697.14288"
           y="76.805397" /></flowRegion><flowPara
         id="flowPara46" /></flowRoot>  </g>
</svg>
