<?xml version="1.0" encoding="UTF-8" standalone="no"?>
<svg
   xmlns:dc="http://purl.org/dc/elements/1.1/"
   xmlns:cc="http://creativecommons.org/ns#"
   xmlns:rdf="http://www.w3.org/1999/02/22-rdf-syntax-ns#"
   xmlns:svg="http://www.w3.org/2000/svg"
   xmlns="http://www.w3.org/2000/svg"
   xmlns:sodipodi="http://sodipodi.sourceforge.net/DTD/sodipodi-0.dtd"
   xmlns:inkscape="http://www.inkscape.org/namespaces/inkscape"
   viewBox="0 0 1200 480"
   version="1.1"
   id="svg10"
   sodipodi:docname="redux-logo.svg"
   width="1200"
   height="480"
   inkscape:version="0.92.5 (2060ec1f9f, 2020-04-08)">
  <metadata
     id="metadata16">
    <rdf:RDF>
      <cc:Work
         rdf:about="">
        <dc:format>image/svg+xml</dc:format>
        <dc:type
           rdf:resource="http://purl.org/dc/dcmitype/StillImage" />
        <dc:title></dc:title>
      </cc:Work>
    </rdf:RDF>
  </metadata>
  <defs
     id="defs14" />
  <sodipodi:namedview
     pagecolor="#ffffff"
     bordercolor="#666666"
     borderopacity="1"
     objecttolerance="10"
     gridtolerance="10"
     guidetolerance="10"
     inkscape:pageopacity="0"
     inkscape:pageshadow="2"
     inkscape:window-width="1600"
     inkscape:window-height="863"
     id="namedview12"
     showgrid="false"
     inkscape:zoom="0.417193"
     inkscape:cx="444.42103"
     inkscape:cy="310.04549"
     inkscape:window-x="1600"
     inkscape:window-y="0"
     inkscape:window-maximized="1"
     inkscape:current-layer="svg10" />
  <g
     id="g8"
     transform="matrix(6.0321716,0,0,6.0321716,-56.110607,-62.32788)"
     style="fill:#764abc">
    <path
       d="m 65.6,65.4 c 2.9,-0.3 5.1,-2.8 5,-5.8 -0.1,-3 -2.6,-5.4 -5.6,-5.4 h -0.2 c -3.1,0.1 -5.5,2.7 -5.4,5.8 0.1,1.5 0.7,2.8 1.6,3.7 -3.4,6.7 -8.6,11.6 -16.4,15.7 -5.3,2.8 -10.8,3.8 -16.3,3.1 -4.5,-0.6 -8,-2.6 -10.2,-5.9 -3.2,-4.9 -3.5,-10.2 -0.8,-15.5 1.9,-3.8 4.9,-6.6 6.8,-8 -0.4,-1.3 -1,-3.5 -1.3,-5.1 -14.5,10.5 -13,24.7 -8.6,31.4 3.3,5 10,8.1 17.4,8.1 2,0 4,-0.2 6,-0.7 12.8,-2.5 22.5,-10.1 28,-21.4 z"
       id="path2"
       inkscape:connector-curvature="0" />
    <path
       d="M 83.2,53 C 75.6,44.1 64.4,39.2 51.6,39.2 H 50 c -0.9,-1.8 -2.8,-3 -4.9,-3 h -0.2 c -3.1,0.1 -5.5,2.7 -5.4,5.8 0.1,3 2.6,5.4 5.6,5.4 h 0.2 c 2.2,-0.1 4.1,-1.5 4.9,-3.4 H 52 c 7.6,0 14.8,2.2 21.3,6.5 5,3.3 8.6,7.6 10.6,12.8 1.7,4.2 1.6,8.3 -0.2,11.8 -2.8,5.3 -7.5,8.2 -13.7,8.2 -4,0 -7.8,-1.2 -9.8,-2.1 -1.1,1 -3.1,2.6 -4.5,3.6 4.3,2 8.7,3.1 12.9,3.1 9.6,0 16.7,-5.3 19.4,-10.6 2.9,-5.8 2.7,-15.8 -4.8,-24.3 z"
       id="path4"
       inkscape:connector-curvature="0" />
    <path
       d="m 32.4,67.1 c 0.1,3 2.6,5.4 5.6,5.4 h 0.2 c 3.1,-0.1 5.5,-2.7 5.4,-5.8 -0.1,-3 -2.6,-5.4 -5.6,-5.4 h -0.2 c -0.2,0 -0.5,0 -0.7,0.1 -4.1,-6.8 -5.8,-14.2 -5.2,-22.2 0.4,-6 2.4,-11.2 5.9,-15.5 2.9,-3.7 8.5,-5.5 12.3,-5.6 10.6,-0.2 15.1,13 15.4,18.3 1.3,0.3 3.5,1 5,1.5 C 69.3,21.7 59.3,13.3 49.7,13.3 c -9,0 -17.3,6.5 -20.6,16.1 -4.6,12.8 -1.6,25.1 4,34.8 -0.5,0.7 -0.8,1.8 -0.7,2.9 z"
       id="path6"
       inkscape:connector-curvature="0" />
  </g>
  <path
     inkscape:connector-curvature="0"
     id="path26"
     style="font-style:normal;font-weight:normal;font-size:192px;line-height:2.25;font-family:sans-serif;letter-spacing:0px;word-spacing:0px;fill:#000000;fill-opacity:1;stroke:none"
     d="m 610.99414,246.82617 q 6.09375,2.0625 11.8125,8.8125 5.8125,6.75 11.625,18.5625 l 19.21875,38.25 h -20.34375 l -17.90625,-35.90625 q -6.9375,-14.0625 -13.5,-18.65625 -6.46875,-4.59375 -17.71875,-4.59375 h -20.625 v 59.15625 h -18.9375 V 172.48242 h 42.75 q 24,0 35.8125,10.03125 11.8125,10.03125 11.8125,30.28125 0,13.21875 -6.1875,21.9375 -6.09375,8.71875 -17.8125,12.09375 z m -47.4375,-58.78125 v 49.6875 h 23.8125 q 13.6875,0 20.625,-6.28125 7.03125,-6.375 7.03125,-18.65625 0,-12.28125 -7.03125,-18.46875 -6.9375,-6.28125 -20.625,-6.28125 z" />
  <path
     inkscape:connector-curvature="0"
     id="path28"
     style="font-style:normal;font-weight:normal;font-size:192px;line-height:2.25;font-family:sans-serif;letter-spacing:0px;word-spacing:0px;fill:#000000;fill-opacity:1;stroke:none"
     d="m 758.46289,255.63867 v 8.4375 h -79.3125 q 1.125,17.8125 10.6875,27.1875 9.65625,9.28125 26.8125,9.28125 9.9375,0 19.21875,-2.4375 9.375,-2.4375 18.5625,-7.3125 v 16.3125 q -9.28125,3.9375 -19.03125,6 -9.75,2.0625 -19.78125,2.0625 -25.125,0 -39.84375,-14.625 -14.625,-14.625 -14.625,-39.5625 0,-25.78125 13.875,-40.875 13.96875,-15.1875 37.59375,-15.1875 21.1875,0 33.46875,13.6875 12.375,13.59375 12.375,37.03125 z m -17.25,-5.0625 q -0.1875,-14.15625 -7.96875,-22.59375 -7.6875,-8.4375 -20.4375,-8.4375 -14.4375,0 -23.15625,8.15625 -8.625,8.15625 -9.9375,22.96875 z" />
  <path
     inkscape:connector-curvature="0"
     id="path30"
     style="font-style:normal;font-weight:normal;font-size:192px;line-height:2.25;font-family:sans-serif;letter-spacing:0px;word-spacing:0px;fill:#000000;fill-opacity:1;stroke:none"
     d="m 855.86914,223.38867 v -56.8125 h 17.25 v 145.875 h -17.25 v -15.75 q -5.4375,9.375 -13.78125,13.96875 -8.25,4.5 -19.875,4.5 -19.03125,0 -31.03125,-15.1875 -11.90625,-15.1875 -11.90625,-39.9375 0,-24.75 11.90625,-39.9375 12,-15.1875 31.03125,-15.1875 11.625,0 19.875,4.59375 8.34375,4.5 13.78125,13.875 z m -58.78125,36.65625 q 0,19.03125 7.78125,29.90625 7.875,10.78125 21.5625,10.78125 13.6875,0 21.5625,-10.78125 7.875,-10.875 7.875,-29.90625 0,-19.03125 -7.875,-29.8125 -7.875,-10.875 -21.5625,-10.875 -13.6875,0 -21.5625,10.875 -7.78125,10.78125 -7.78125,29.8125 z" />
  <path
     inkscape:connector-curvature="0"
     id="path32"
     style="font-style:normal;font-weight:normal;font-size:192px;line-height:2.25;font-family:sans-serif;letter-spacing:0px;word-spacing:0px;fill:#000000;fill-opacity:1;stroke:none"
     d="m 906.86914,271.01367 v -63.5625 h 17.25 v 62.90625 q 0,14.90625 5.8125,22.40625 5.8125,7.40625 17.4375,7.40625 13.96875,0 22.03125,-8.90625 8.15625,-8.90625 8.15625,-24.28125 v -59.53125 h 17.25 v 105 h -17.25 v -16.125 q -6.28125,9.5625 -14.625,14.25 -8.25,4.59375 -19.21875,4.59375 -18.09375,0 -27.46875,-11.25 -9.375,-11.25 -9.375,-32.90625 z m 43.40625,-66.09375 z" />
  <path
     inkscape:connector-curvature="0"
     id="path34"
     style="font-style:normal;font-weight:normal;font-size:192px;line-height:2.25;font-family:sans-serif;letter-spacing:0px;word-spacing:0px;fill:#000000;fill-opacity:1;stroke:none"
     d="m 1117.6191,207.45117 -37.9687,51.09375 39.9375,53.90625 h -20.3438 l -30.5625,-41.25 -30.5625,41.25 h -20.3437 l 40.7812,-54.9375 -37.3125,-50.0625 h 20.3438 l 27.8437,37.40625 27.8438,-37.40625 z" />
</svg>
