<?xml version="1.0" encoding="UTF-8" standalone="no"?>
<!-- Created with Inkscape (http://www.inkscape.org/) -->

<svg
   xmlns:dc="http://purl.org/dc/elements/1.1/"
   xmlns:cc="http://creativecommons.org/ns#"
   xmlns:rdf="http://www.w3.org/1999/02/22-rdf-syntax-ns#"
   xmlns:svg="http://www.w3.org/2000/svg"
   xmlns="http://www.w3.org/2000/svg"
   xmlns:sodipodi="http://sodipodi.sourceforge.net/DTD/sodipodi-0.dtd"
   xmlns:inkscape="http://www.inkscape.org/namespaces/inkscape"
   width="1050"
   height="470"
   viewBox="0 0 277.81249 124.35417"
   version="1.1"
   id="svg8"
   inkscape:version="0.92.5 (2060ec1f9f, 2020-04-08)"
   sodipodi:docname="ruby-logo.svg">
  <defs
     id="defs2" />
  <sodipodi:namedview
     id="base"
     pagecolor="#ffffff"
     bordercolor="#666666"
     borderopacity="1.0"
     inkscape:pageopacity="0.0"
     inkscape:pageshadow="2"
     inkscape:zoom="0.35"
     inkscape:cx="155.71429"
     inkscape:cy="548.57143"
     inkscape:document-units="mm"
     inkscape:current-layer="layer1"
     showgrid="false"
     units="px"
     inkscape:window-width="1600"
     inkscape:window-height="863"
     inkscape:window-x="1600"
     inkscape:window-y="0"
     inkscape:window-maximized="1" />
  <metadata
     id="metadata5">
    <rdf:RDF>
      <cc:Work
         rdf:about="">
        <dc:format>image/svg+xml</dc:format>
        <dc:type
           rdf:resource="http://purl.org/dc/dcmitype/StillImage" />
        <dc:title></dc:title>
      </cc:Work>
    </rdf:RDF>
  </metadata>
  <g
     inkscape:label="Layer 1"
     inkscape:groupmode="layer"
     id="layer1"
     transform="translate(0,-172.64583)">
    <path
       id="path10"
       d="m 38.274663,282.88586 c 27.492916,3.75368 54.497354,7.44029 82.038337,11.19897 -9.38318,-15.62131 -18.52515,-30.84321 -27.740178,-46.18923 z M 128.0726,196.4182 c -2.42337,3.63956 -4.85175,7.27612 -7.27212,10.91769 -8.31214,12.50524 -16.62327,25.01049 -24.927428,37.52173 -0.462451,0.69669 -1.06204,1.24923 -0.410401,2.32328 8.023879,13.24997 15.984669,26.53898 23.965479,39.81597 1.25924,2.09704 2.53248,4.1861 4.16108,6.19806 1.61358,-32.22453 3.22616,-64.45008 4.83874,-96.67463 z M 18.536338,237.73165 c 0.375372,0.35536 1.312286,0.56255 1.748712,0.34734 7.696537,-3.78271 15.442117,-7.48133 22.970491,-11.57534 2.455404,-1.33431 4.343251,-3.72665 6.45832,-5.66655 7.003858,-6.42328 13.996704,-12.85958 20.986549,-19.29689 0.427418,-0.39538 0.933913,-0.77776 1.189164,-1.27625 2.510458,-4.9068 4.97787,-9.83863 7.532372,-14.91259 -3.045981,-1.14513 -5.933809,-2.26522 -8.857672,-3.28422 -0.396388,-0.13813 -1.020999,0.13612 -1.450419,0.37537 -6.767626,3.7807 -13.662376,7.36021 -20.214789,11.48324 -3.278211,2.06302 -5.948825,5.103 -8.851668,7.75059 -4.678578,4.27018 -9.351153,8.55037 -13.961667,12.89463 -1.223198,1.15313 -2.338291,2.47042 -3.291222,3.85777 -3.153089,4.5915 -6.212082,9.24906 -9.411217,14.03875 1.787752,1.84881 3.413342,3.61654 5.153046,5.26415 z m 28.12954,-6.27715 C 42.83713,247.62934 39.031404,263.71308 35.098553,280.32533 53.539608,268.44273 71.555246,256.83435 89.451766,245.30406 75.209821,240.69455 61.013927,236.09905 46.665878,231.4545 Z M 123.372,196.57435 c -15.58126,2.60355 -30.79017,5.14404 -46.19525,7.71756 5.247137,12.7635 10.389169,25.27074 15.677348,38.13333 10.231022,-15.37405 20.259862,-30.4398 30.517902,-45.85089 z m -76.063491,31.57191 c 14.030734,4.55446 27.782197,9.01883 41.933053,13.61333 -5.255147,-12.80253 -10.330114,-25.15763 -15.510186,-37.77398 -8.823638,8.0669 -17.515147,16.01468 -26.422867,24.16065 z m -28.192603,19.01762 c -4.975872,11.89465 -9.7825798,23.3849 -14.6763713,35.08234 9.4052103,-0.27806 18.5221363,-0.54754 27.9523703,-0.8258 -4.427335,-11.4232 -8.767586,-22.62215 -13.275999,-34.25654 z m 13.60632,26.12157 0.346355,-0.076 c 3.356286,-13.95465 6.760619,-27.81322 10.186975,-42.31341 -7.643486,3.97289 -14.934624,7.7616 -22.424957,11.65541 3.822744,9.93572 7.898733,20.41698 11.891642,30.73408 z m 85.010254,-78.97431 c -4.46337,-1.18216 -8.92674,-2.36832 -13.39211,-3.54247 -6.418312,-1.68766 -12.8416,-3.35429 -19.25588,-5.05695 -0.801784,-0.21322 -1.381352,-0.35233 -1.852815,0.6136 -2.267218,4.64455 -4.604506,9.25406 -6.90776,13.88159 -0.07109,0.14316 -0.05607,0.32831 -0.111114,0.68767 13.899608,-2.10606 27.706149,-4.19911 41.510659,-6.29116 z m -25.894377,-10.56435 36.378637,10.06386 c -2.08604,-5.94482 -4.02094,-11.45722 -6.01089,-17.12677 l -30.314695,6.72158 z M 35.806244,285.56548 c -4.505408,-0.51951 -9.130938,-0.042 -13.700412,0.0378 -3.753673,0.0632 -7.50735,0.20619 -11.261025,0.32347 -0.386378,0.0114 -0.771757,0.09 -1.157132,0.5065 31.033384,2.86878 62.065763,5.73761 93.098155,8.6084 l 0.0631,-0.41438 c -9.947788,-1.35837 -19.896525,-2.7167 -29.844267,-4.07405 -12.396136,-1.69265 -24.771249,-3.55445 -37.198419,-4.98686 z M 5.0531371,271.53873 c 3.9989135,-9.27907 7.9808149,-18.56416 11.9957439,-27.83624 0.401393,-0.92991 0.370378,-1.56152 -0.415406,-2.31026 -1.679645,-1.59856 -3.240173,-3.32125 -5.075971,-5.23112 -2.4814299,12.25199 -4.9017976,24.20069 -7.3241705,36.14838 l 0.2712577,0.12712 c 0.1851892,-0.29736 0.4114038,-0.57857 0.5485384,-0.89788 z M 83.8703,181.29739 c 6.743602,-1.7397 13.5853,-3.10003 20.38698,-4.61752 0.44043,-0.0991 0.87086,-0.24424 1.30428,-0.36837 l -0.0671,-0.33232 c -9.580399,1.28826 -19.159775,2.57753 -29.22263,3.93185 2.743686,1.19817 4.857756,2.09305 7.598439,1.38636 z"
       inkscape:connector-curvature="0"
       style="clip-rule:evenodd;fill:#d91404;fill-rule:evenodd;stroke-width:1.0009799" />
    <path
       inkscape:connector-curvature="0"
       id="path94"
       style="font-style:normal;font-weight:normal;font-size:192px;line-height:1.25;font-family:sans-serif;letter-spacing:0px;word-spacing:0px;fill:#000000;fill-opacity:1;stroke:none;stroke-width:0.26458332"
       d="m 168.68264,234.31728 q 1.6123,0.54571 3.12539,2.33164 1.53789,1.78594 3.07578,4.91133 l 5.08496,10.12031 h -5.38262 l -4.73769,-9.50019 q -1.83555,-3.72071 -3.57188,-4.93614 -1.71152,-1.21542 -4.68808,-1.21542 h -5.45703 v 15.65175 h -5.01055 v -37.0334 h 11.31094 q 6.35,0 9.47539,2.65411 3.12539,2.6541 3.12539,8.01191 0,3.49746 -1.63711,5.8043 -1.61231,2.30683 -4.71289,3.1998 z m -12.55117,-15.55254 v 13.14649 h 6.30039 q 3.62148,0 5.45703,-1.66192 1.86035,-1.68672 1.86035,-4.93613 0,-3.24941 -1.86035,-4.88652 -1.83555,-1.66192 -5.45703,-1.66192 z" />
    <path
       inkscape:connector-curvature="0"
       id="path96"
       style="font-style:normal;font-weight:normal;font-size:192px;line-height:1.25;font-family:sans-serif;letter-spacing:0px;word-spacing:0px;fill:#000000;fill-opacity:1;stroke:none;stroke-width:0.26458332"
       d="m 183.46623,240.71689 v -16.81758 h 4.56406 v 16.64395 q 0,3.94394 1.53789,5.92832 1.5379,1.95957 4.61368,1.95957 3.69589,0 5.8291,-2.35645 2.15801,-2.35644 2.15801,-6.42441 v -15.75098 h 4.56406 v 27.78125 h -4.56406 v -4.2664 q -1.66192,2.53007 -3.86954,3.77031 -2.18281,1.21543 -5.08496,1.21543 -4.7873,0 -7.26777,-2.97656 -2.48047,-2.97657 -2.48047,-8.70645 z m 11.48457,-17.4873 z" />
    <path
       inkscape:connector-curvature="0"
       id="path98"
       style="font-style:normal;font-weight:normal;font-size:192px;line-height:1.25;font-family:sans-serif;letter-spacing:0px;word-spacing:0px;fill:#000000;fill-opacity:1;stroke:none;stroke-width:0.26458332"
       d="m 236.07697,237.81474 q 0,-5.03535 -2.08359,-7.88789 -2.05879,-2.87734 -5.68027,-2.87734 -3.62149,0 -5.70508,2.87734 -2.05879,2.85254 -2.05879,7.88789 0,5.03535 2.05879,7.9127 2.08359,2.85254 5.70508,2.85254 3.62148,0 5.68027,-2.85254 2.08359,-2.87735 2.08359,-7.9127 z m -15.52773,-9.69863 q 1.43867,-2.48047 3.62148,-3.67109 2.20762,-1.21543 5.2586,-1.21543 5.06015,0 8.21035,4.01836 3.175,4.01836 3.175,10.56679 0,6.54844 -3.175,10.5668 -3.1502,4.01836 -8.21035,4.01836 -3.05098,0 -5.2586,-1.19063 -2.18281,-1.21543 -3.62148,-3.69589 v 4.16718 h -4.58887 v -38.59609 h 4.58887 z" />
    <path
       inkscape:connector-curvature="0"
       id="path100"
       style="font-style:normal;font-weight:normal;font-size:192px;line-height:1.25;font-family:sans-serif;letter-spacing:0px;word-spacing:0px;fill:#000000;fill-opacity:1;stroke:none;stroke-width:0.26458332"
       d="m 259.93908,254.26025 q -1.93476,4.96094 -3.77031,6.47402 -1.83555,1.51309 -4.91133,1.51309 h -3.64629 v -3.81992 h 2.67891 q 1.88516,0 2.92695,-0.89297 1.0418,-0.89297 2.30684,-4.2168 l 0.81855,-2.08359 -11.23652,-27.33477 h 4.83691 l 8.68164,21.72891 8.68164,-21.72891 h 4.83692 z" />
  </g>
</svg>
